<svg width="70" height="70" viewBox="0 0 72 72" fill="none" xmlns="http://www.w3.org/2000/svg">
<mask id="mask0" mask-type="alpha" maskUnits="userSpaceOnUse" x="0" y="0" width="72" height="72">
<path d="M72 36C72 16.1365 55.8635 0 36 0C16.1365 0 0 16.1365 0 36C0 55.8635 16.1365 72 36 72C55.8635 72 72 55.8635 72 36Z" fill="#FA5430"/>
</mask>
<g mask="url(#mask0)">
<path d="M72 36.0004C72 16.1369 55.8635 0.000427246 36 0.000427246C16.1365 0.000427246 0 16.1369 0 36.0004C0 55.864 16.1365 72.0004 36 72.0004C55.8635 72.0004 72 55.864 72 36.0004Z" fill="#FA5430"/>
<path d="M72 36.0857C72 16.2222 55.8635 0.0856934 36 0.0856934C16.1365 0.0856934 0 16.2222 0 36.0857C0 55.9492 16.1365 72.0857 36 72.0857C55.8635 72.0857 72 55.9916 72 36.0857Z" fill="#FA5430"/>
<path opacity="0.05" d="M71.9998 36C71.9998 16.1365 55.8633 0 35.9998 0V72C55.8633 72 71.9998 55.8635 71.9998 36Z" fill="black"/>
<path d="M41.2519 57.768L35.9155 72.7186L30.7484 57.768V46.2056H41.2519V57.768Z" fill="#EAC8AD"/>
<path d="M36 14.1451C30.8753 14.1451 22.7859 17.0674 22.7859 30.7051C22.7859 38.5827 25.8353 42.3098 26.9788 43.7074C27.9953 45.0204 33.2894 49.2557 36 49.2557C36 35.491 36 14.1451 36 14.1451Z" fill="#F2D7BC"/>
<path d="M20.2447 33.9664C20.0329 31.8064 21.0494 29.8581 22.5741 29.6464C24.0988 29.4346 25.4965 31.044 25.7082 33.204C25.92 35.364 24.9035 37.3123 23.3788 37.524C21.8541 37.7358 20.4565 36.1264 20.2447 33.9664Z" fill="#F2D7BC"/>
<path d="M35.9575 14.1451C41.0822 14.1451 49.1716 17.0674 49.1716 30.7051C49.1716 38.5827 46.1222 42.3098 44.9787 43.7074C43.9622 45.0204 38.6681 49.2557 35.9575 49.2557C35.9575 35.491 35.9575 14.1451 35.9575 14.1451Z" fill="#EAC0A7"/>
<path d="M51.7551 33.9668C51.9668 31.8068 50.9504 29.8586 49.4256 29.6468C47.9009 29.4351 46.5033 31.0445 46.2915 33.2045C46.0798 35.3645 47.0962 37.3127 48.6209 37.5245C50.1457 37.7362 51.5433 36.1268 51.7551 33.9668Z" fill="#EAC0A7"/>
<path d="M35.9998 44.4697C37.9904 44.4697 39.5998 43.2415 39.5998 41.7168H32.3998C32.3998 43.2415 34.0093 44.4697 35.9998 44.4697Z" fill="white"/>
<path d="M36.0001 72.7205V58.3205C36.0001 58.3205 32.0613 57.3464 31.2142 54.1699C30.7907 52.6452 30.7907 51.417 30.7907 51.417C30.7907 51.417 22.193 54.3393 20.2872 57.3041C18.6777 62.0476 18.2542 72.7205 18.2542 72.7205H36.0001Z" fill="#F2D7BC"/>
<path d="M35.9999 72.7206V58.3206C35.9999 58.3206 39.9388 57.3465 40.7858 54.1701C41.2094 52.6453 41.2094 51.4171 41.2094 51.4171C41.2094 51.4171 49.807 54.3395 51.7129 57.3042C53.3223 62.0477 53.7458 72.7206 53.7458 72.7206H35.9999Z" fill="#EAC0A7"/>
<path d="M36.0001 61.9192C31.5954 61.9192 28.0378 57.7262 27.9107 52.4745C26.1742 53.1945 25.4542 53.4486 24.1836 54.2533C24.0142 55.3121 22.8707 58.2345 22.3201 62.5968C21.7695 66.9168 23.0401 72.7192 23.0401 72.7192H36.0001V61.9192Z" fill="#47A5FA"/>
<path d="M35.9998 61.9192C40.4045 61.9192 43.9622 57.7262 44.0892 52.4745C45.8257 53.1945 46.5457 53.4486 47.8163 54.2533C47.9857 55.3121 49.1292 58.2345 49.6798 62.5968C50.2304 66.9168 48.9598 72.7192 48.9598 72.7192H35.9998V61.9192Z" fill="#4790FA"/>
<path d="M41.2092 9.10538C41.2516 8.80891 41.294 8.51244 41.294 8.21597C41.2516 5.33597 38.9222 2.9642 35.9998 2.9642C33.0775 2.9642 30.7481 5.33597 30.7481 8.21597C30.7481 8.51244 30.7904 8.80891 30.8328 9.10538C24.6916 11.2654 20.2869 17.1101 20.2869 23.9713C20.2869 26.1313 20.7104 28.2066 21.5151 30.1124C21.854 29.8583 22.1928 29.6466 22.6163 29.6042C22.701 29.6042 22.7857 29.6042 22.8704 29.6042C23.6328 30.7477 24.6492 31.7219 25.581 32.3148C25.7504 32.3995 25.8775 32.5266 26.0469 32.5689C26.0469 31.6795 26.0469 31.383 26.0469 30.2395C26.0469 27.1901 28.9269 24.3524 33.2892 24.8183C34.3057 24.9454 35.1951 24.8607 35.9998 24.6489H36.0422C38.414 24.0136 40.1928 22.0654 41.7175 19.3124C41.7175 19.2701 41.7598 19.2701 41.7598 19.2277C42.6492 21.8113 44.894 27.1477 49.214 29.4348C49.2987 29.4771 49.4257 29.5619 49.5104 29.6042C49.8916 29.6466 50.2728 29.816 50.6116 30.1124C51.4163 28.2489 51.8398 26.1736 51.8398 23.9713C51.7551 17.1101 47.3504 11.2654 41.2092 9.10538Z" fill="#845830"/>
</g>
</svg>
