<svg width="70" height="70" viewBox="0 0 70 70" fill="none" xmlns="http://www.w3.org/2000/svg">
<mask id="mask0" mask-type="alpha" maskUnits="userSpaceOnUse" x="0" y="0" width="70" height="70">
<path d="M70 35C70 15.6882 54.3118 0 35 0C15.6882 0 0 15.6882 0 35C0 54.3118 15.6882 70 35 70C54.3118 70 70 54.3118 70 35Z" fill="#AF4AFA"/>
</mask>
<g mask="url(#mask0)">
<path d="M70 34.588C70 15.2762 54.3118 -0.411987 35 -0.411987C15.6883 -0.411987 1.52588e-05 15.2762 1.52588e-05 34.588C1.52588e-05 53.8998 15.6883 69.588 35 69.588C54.3118 69.588 70 53.8998 70 34.588Z" fill="#AF4AFA"/>
<path d="M70 34.6693C70 15.3575 54.3117 -0.330734 35 -0.330734C15.6882 -0.330734 -3.05176e-05 15.3575 -3.05176e-05 34.6693C-3.05176e-05 53.981 15.6882 69.6693 35 69.6693C54.3117 69.6693 70 54.0222 70 34.6693Z" fill="#AF4AFA"/>
<path d="M35.124 70L35.1654 69.9171H35.0825L35.124 70Z" fill="#AF4AFA"/>
<path opacity="0.05" d="M70 34.5886C70 15.2768 54.3118 -0.411407 35 -0.411407V69.5886C54.3118 69.5886 70 53.9004 70 34.5886Z" fill="black"/>
<path d="M40.1061 57.8938L35.1238 70.0408L29.8944 57.8938V46.6526H40.1061V57.8938Z" fill="#895434"/>
<path d="M35 14.4937C39.9823 14.4937 47.847 17.3349 47.847 30.5937C47.847 38.2526 45.3353 43.2761 44.2647 44.6349C43.2765 45.9114 37.6353 48.629 35 48.629C35 35.2467 35 14.4937 35 14.4937Z" fill="#845132"/>
<path d="M50.3175 33.7631C50.5234 31.663 49.5351 29.7689 48.0528 29.5631C46.5704 29.3572 45.2116 30.9219 45.0057 33.0219C44.7999 35.1219 45.7881 37.016 47.2704 37.2219C48.7528 37.4278 50.1116 35.863 50.3175 33.7631Z" fill="#845132"/>
<path d="M35 14.4937C30.0176 14.4937 22.1529 17.3349 22.1529 30.5937C22.1529 38.2526 24.6647 43.2761 25.7352 44.6349C26.7235 45.9114 32.3647 48.629 35 48.629C35 35.2467 35 14.4937 35 14.4937Z" fill="#935A38"/>
<path d="M19.6823 33.7644C19.4764 31.6644 20.4647 29.7703 21.947 29.5644C23.4294 29.3585 24.7882 30.9232 24.9941 33.0232C25.1999 35.1232 24.2117 37.0173 22.7294 37.2232C21.247 37.4291 19.8882 35.8644 19.6823 33.7644Z" fill="#935A38"/>
<path d="M35 42.946C37.3059 42.946 39.2 42.1636 39.2 41.2166H30.8C30.8 42.1636 32.6941 42.946 35 42.946Z" fill="white"/>
<path d="M40.1059 49.8638H41.8353C45.0882 50.6873 48.6706 51.305 51.0176 54.0638C52.5 55.7932 55.4647 71.3167 55.4647 71.3167H48.8353H35V56.9873V53.8991C37.8411 53.8579 40.1059 52.0462 40.1059 49.8638Z" fill="#845132"/>
<path d="M29.8941 49.8647H28.1647C24.9117 50.6883 21.3294 51.3059 18.9823 54.0647C17.5 55.7942 14.5353 71.3177 14.5353 71.3177H21.1647H35V56.9883V53.9C32.1588 53.8589 29.8941 52.0471 29.8941 49.8647Z" fill="#935A38"/>
<path d="M39.6118 12.6412H39.2C38.6236 12.6412 38.1706 13.0942 38.1706 13.6706V12.3942C38.1706 11.8177 37.7177 11.3648 37.1412 11.3648H36.7295C36.153 11.3648 35.7 11.8177 35.7 12.3942C35.7 11.8177 35.2471 11.3648 34.6706 11.3648H34.2589C33.6824 11.3648 33.2295 11.8177 33.2295 12.3942V13.6706C33.2295 13.0942 32.7765 12.6412 32.2 12.6412H31.7883C31.2118 12.6412 30.7589 13.0942 30.7589 13.6706V14.2059C30.5942 13.8353 30.2236 13.5883 29.7706 13.5883H29.4412C28.8647 13.5883 28.3706 14.0824 28.3706 14.6589V16.1412C28.2471 15.6471 27.7942 15.2353 27.2589 15.2353H26.9295C26.353 15.2353 25.8589 15.7295 25.8589 16.3059V18.3236C25.6942 17.9118 25.3236 17.6236 24.8706 17.6236H24.5412C23.9647 17.6236 23.4706 18.1177 23.4706 18.6942V22.2765C23.4295 22.2765 23.3471 22.2765 23.3059 22.2765H22.6059C22.1118 22.2765 21.7 22.6883 21.7 23.1824V27.8354C21.7 28.3295 22.1118 28.7412 22.6059 28.7412H23.3059C23.8 28.7412 24.2118 28.3295 24.2118 27.8354V26.8471C24.3353 26.8883 24.4177 26.8883 24.5412 26.8883H24.8706C25.4471 26.8883 25.9412 26.3942 25.9412 25.8177V23.8001C26.1059 24.2118 26.4765 24.5001 26.9295 24.5001H27.2589C27.8353 24.5001 28.3295 24.0059 28.3295 23.4295V21.9471C28.4118 22.4824 28.8647 22.853 29.4 22.853H29.7295C30.3059 22.853 30.8 22.3589 30.8 21.7824V20.7118C30.9648 21.0412 31.3353 21.2883 31.7471 21.2883H32.1589C32.7353 21.2883 33.1883 20.8354 33.1883 20.2589V18.9412C33.1883 19.5177 33.6412 19.9706 34.2177 19.9706H34.6295C35.2059 19.9706 35.6589 19.5177 35.6589 18.9412C35.6589 19.5177 36.1118 19.9706 36.6883 19.9706H37.1C37.6765 19.9706 38.1295 19.5177 38.1295 18.9412V20.2589C38.1295 20.8354 38.5824 21.2883 39.1589 21.2883H39.5706C40.1471 21.2883 40.6 20.8354 40.6 20.2589V13.6706C40.6412 13.0942 40.1883 12.6412 39.6118 12.6412Z" fill="#461811"/>
<path d="M48.2587 22.894H47.8881V18.7352C47.8881 18.1587 47.394 17.6646 46.8175 17.6646H46.4881C46.0351 17.6646 45.6234 17.9528 45.4998 18.3646V16.3469C45.4998 15.7704 45.0057 15.2763 44.4293 15.2763H44.0587C43.5234 15.2763 43.0704 15.6881 42.9881 16.1822V14.6999C42.9881 14.1234 42.494 13.6293 41.9175 13.6293H41.5881C41.0116 13.6293 40.5175 14.1234 40.5175 14.6999V21.8234C40.5175 22.3999 41.0116 22.894 41.5881 22.894H41.9175C42.4528 22.894 42.9057 22.4822 42.9881 21.9881V23.4704C42.9881 24.0469 43.4822 24.541 44.0587 24.541H44.3881C44.841 24.541 45.2528 24.2528 45.3763 23.841V25.8587C45.3763 26.4352 45.8704 26.9293 46.4469 26.9293H46.6116V27.8763C46.6116 28.3705 46.9822 28.741 47.4763 28.741H48.2587C48.7528 28.741 49.1234 28.3705 49.1234 27.8763V23.7587C49.1234 23.2646 48.7116 22.894 48.2587 22.894Z" fill="#461811"/>
<path d="M40.1057 49.8644H41.8351C45.088 50.6879 48.6704 51.3056 51.0175 54.0644C52.4998 55.7938 55.0527 70.0821 55.0527 70.0821H48.8351H34.9998V56.9879V53.8997C37.841 53.8585 40.1057 52.0468 40.1057 49.8644Z" fill="#C6C6C6"/>
<path d="M29.894 49.8665H28.1646C24.9116 50.69 21.3293 51.3077 18.9822 54.0665C17.4999 55.7959 14.9469 70.0841 14.9469 70.0841H21.1646H34.9999V56.99V53.9018C32.1587 53.8606 29.894 52.0488 29.894 49.8665Z" fill="#C6C6C6"/>
<path d="M34.9996 55.1358C38.7879 55.1358 41.8761 52.7475 41.8761 49.824H40.1055C40.1055 52.0475 37.7996 53.8181 34.9996 53.8181C32.1585 53.8181 29.8938 52.0064 29.8938 49.824H28.1232C28.1232 52.7887 31.2114 55.1358 34.9996 55.1358Z" fill="#C6C6C6"/>
<path d="M39.5704 40.3531L34.9998 38.2943L30.4293 40.3531H31.2116L34.9998 39.5296L38.7881 40.3531H39.5704Z" fill="#461811"/>
</g>
</svg>
